<?xml version="1.0" standalone="no"?>
<!DOCTYPE svg PUBLIC "-//W3C//DTD SVG 20010904//EN"
 "http://www.w3.org/TR/2001/REC-SVG-20010904/DTD/svg10.dtd">
<svg version="1.0" xmlns="http://www.w3.org/2000/svg"
 width="433.000000pt" height="433.000000pt" viewBox="0 0 433.000000 433.000000"
 preserveAspectRatio="xMidYMid meet">
<metadata>
Created by potrace 1.14, written by Peter Selinger 2001-2017
</metadata>
<g transform="translate(0.000000,433.000000) scale(0.100000,-0.100000)"
fill="#000000" stroke="none">
<path d="M1980 4089 c-60 -6 -96 -11 -175 -25 -66 -11 -260 -66 -331 -94 -188
-75 -366 -180 -524 -307 -68 -56 -216 -202 -265 -263 -59 -73 -121 -162 -153
-217 -20 -34 -40 -59 -45 -56 -6 3 -7 2 -4 -4 4 -5 -16 -55 -43 -109 -27 -54
-50 -105 -50 -111 0 -7 -4 -13 -10 -13 -5 0 -7 -6 -4 -14 3 -7 -2 -20 -10 -29
-8 -8 -13 -17 -10 -19 2 -3 0 -18 -7 -34 -6 -16 -13 -38 -15 -49 -2 -11 -8
-29 -13 -40 -8 -16 -33 -120 -35 -147 -1 -3 -4 -10 -9 -14 -10 -11 -9 -26 3
-19 5 3 4 -9 -3 -27 -7 -18 -12 -42 -12 -53 0 -11 -6 -26 -15 -33 -8 -8 -9
-10 -2 -7 19 10 11 -53 -8 -67 -12 -8 -12 -9 3 -4 19 6 24 -9 6 -20 -8 -4 -7
-9 2 -15 11 -7 11 -9 1 -9 -9 0 -10 -5 -4 -16 11 -19 4 -55 -12 -66 -8 -6 -8
-8 1 -8 13 0 15 -68 2 -76 -6 -4 -6 -10 0 -18 5 -6 11 -43 13 -81 2 -54 0 -69
-10 -67 -8 1 -11 -2 -7 -8 3 -6 10 -8 15 -5 5 3 11 1 14 -4 4 -5 2 -12 -4 -16
-5 -3 -10 -12 -10 -18 0 -7 4 -6 10 3 7 11 10 7 11 -17 2 -42 3 -45 13 -62 7
-11 6 -12 -5 -6 -8 5 -5 -2 5 -14 20 -22 20 -22 0 -15 -17 7 -18 6 -4 -11 9
-12 10 -16 2 -11 -8 5 -11 3 -10 -6 2 -7 -3 -12 -10 -10 -8 1 -11 -2 -7 -8 5
-8 11 -7 21 1 11 9 14 9 14 0 0 -7 4 -10 9 -7 11 7 9 -13 -3 -33 -6 -10 -5
-12 2 -7 12 7 16 -2 14 -42 -1 -15 3 -20 11 -15 7 4 5 -2 -3 -12 -13 -17 -13
-18 1 -13 13 5 16 2 12 -13 -3 -11 0 -19 6 -19 7 0 9 -4 6 -10 -3 -5 0 -20 7
-32 7 -13 13 -25 13 -28 0 -3 7 -16 14 -29 7 -13 9 -21 3 -17 -5 3 -12 -1 -15
-9 -4 -9 -1 -12 9 -8 9 3 14 0 12 -8 -2 -8 4 -13 12 -11 10 2 9 -3 -5 -15 -11
-10 -18 -17 -16 -16 2 2 10 -5 18 -15 8 -9 12 -12 9 -5 -4 6 -1 15 6 19 7 4
10 4 6 -1 -4 -4 -2 -15 5 -23 9 -13 9 -14 0 -8 -7 4 -13 2 -13 -3 0 -6 -6 -11
-14 -11 -8 0 -18 -4 -21 -10 -4 -7 3 -7 20 0 18 7 32 7 43 -1 16 -10 16 -10 0
-5 -10 3 -20 1 -23 -5 -4 -5 -11 -6 -17 -3 -7 4 -8 2 -4 -5 6 -9 11 -9 21 -1
21 17 39 -13 24 -41 -10 -19 -9 -25 10 -40 14 -12 17 -19 9 -22 -7 -3 -2 -4
10 -4 l24 1 -26 21 c-14 11 -26 25 -26 29 0 5 9 1 21 -10 12 -10 23 -18 25
-16 2 1 4 -1 3 -4 0 -4 5 -10 11 -14 8 -5 1 -11 -19 -18 -42 -15 -39 -22 5
-12 19 5 33 6 30 3 -3 -4 -1 -12 5 -19 7 -8 6 -14 -2 -20 -8 -5 -9 -3 -4 6 6
9 4 11 -5 5 -8 -5 -11 -4 -7 2 4 6 -4 8 -21 4 -25 -5 -25 -6 -4 -9 13 -2 19
-8 16 -14 -4 -6 -2 -8 4 -4 5 3 20 -6 32 -21 12 -16 19 -23 16 -16 -4 6 -1 15
5 19 8 4 9 3 5 -4 -4 -8 0 -12 11 -13 14 0 14 -2 -4 -9 -23 -10 -32 -30 -12
-30 5 0 8 4 5 9 -4 5 2 8 11 7 9 -2 19 -8 21 -14 2 -7 9 -9 15 -6 8 5 8 2 -1
-7 -17 -18 -15 -34 3 -19 12 10 14 8 10 -9 -3 -14 4 -22 23 -30 17 -6 21 -10
10 -10 -10 -1 -18 -7 -18 -15 0 -8 9 -12 26 -10 23 2 26 -9 3 -12 -5 -1 -13
-2 -19 -3 -5 0 -10 -6 -10 -12 0 -8 6 -7 17 2 15 12 16 12 10 -4 -4 -11 -3
-16 3 -12 10 6 14 -7 11 -34 -2 -7 2 -10 8 -6 6 3 11 -1 11 -10 0 -10 -5 -13
-12 -9 -7 4 -10 4 -6 -1 4 -4 2 -15 -5 -24 -6 -8 1 -6 17 7 15 12 33 19 39 15
6 -3 7 -1 3 6 -4 6 -11 9 -15 6 -5 -2 -13 7 -20 21 -6 14 -7 23 -2 20 5 -4 12
0 15 6 4 7 4 3 2 -9 -4 -20 18 -40 27 -25 2 4 3 2 1 -5 -4 -17 8 -24 22 -12
10 8 11 6 1 -14 -6 -14 -15 -23 -19 -20 -5 2 -6 9 -3 14 8 12 -28 -2 -37 -15
-14 -20 -8 -30 5 -11 9 11 19 15 27 10 11 -7 9 -10 -6 -16 -17 -7 -17 -8 -1
-8 10 -1 15 -6 12 -11 -3 -6 -1 -10 5 -10 7 0 10 7 6 17 -5 15 -4 15 9 -1 8
-11 15 -24 15 -28 0 -5 13 -6 30 -3 22 4 32 0 40 -15 6 -11 16 -17 22 -14 7 5
8 2 3 -6 -6 -10 -4 -12 9 -7 10 4 15 3 11 -3 -3 -6 1 -13 10 -16 10 -4 13 -13
10 -25 -7 -20 13 -23 26 -5 4 4 10 3 13 -3 4 -6 2 -11 -4 -11 -6 0 -8 -5 -5
-10 4 -6 10 -8 15 -5 4 3 15 -7 25 -21 14 -22 19 -23 33 -12 11 9 14 10 8 1
-4 -8 3 -23 18 -38 14 -13 21 -27 16 -30 -4 -3 -11 1 -13 7 -4 9 -6 10 -6 1
-1 -6 4 -15 9 -18 6 -3 10 -15 10 -26 0 -11 -4 -18 -8 -15 -4 2 -9 -5 -9 -17
-2 -16 0 -18 7 -8 12 20 43 24 36 5 -3 -9 -1 -12 5 -9 5 4 8 12 6 18 -2 7 0
20 5 29 6 14 5 16 -7 12 -8 -3 -13 -10 -10 -14 3 -5 0 -12 -6 -16 -9 -5 -10 0
-7 14 4 12 2 22 -4 22 -5 0 -3 7 6 15 19 19 32 20 17 1 -10 -12 -6 -14 24 -12
45 4 49 -3 25 -41 -16 -27 -17 -33 -5 -43 8 -7 12 -17 8 -24 -3 -6 3 -2 15 8
17 14 19 22 11 32 -6 8 -16 11 -23 7 -6 -3 -3 3 8 13 17 17 31 11 26 -12 -1
-3 5 -11 12 -17 7 -7 11 -11 9 -9 -7 4 -41 -30 -41 -41 0 -6 6 -2 14 9 8 10
19 20 25 20 6 1 16 2 22 3 8 1 8 5 0 15 -9 11 -9 16 0 22 7 4 9 3 6 -3 -4 -6
0 -16 9 -23 13 -12 14 -10 10 14 -3 14 -1 24 4 21 5 -3 7 -19 5 -36 -3 -24 -1
-29 8 -20 14 11 58 11 51 0 -8 -14 17 -21 32 -8 12 10 13 9 8 -5 -3 -9 -15
-16 -26 -16 -10 0 -17 -4 -14 -8 2 -4 1 -14 -3 -20 -6 -10 -11 -9 -22 4 -12
16 -12 17 4 11 11 -4 16 -3 12 4 -4 6 -14 8 -22 5 -8 -3 -11 -2 -8 4 3 5 -4 7
-15 5 -14 -3 -18 0 -14 8 4 7 -1 4 -11 -5 -20 -19 -13 -37 7 -20 15 11 42 -10
30 -24 -4 -4 -2 -4 5 0 6 3 19 -4 29 -16 11 -16 15 -18 10 -5 -3 11 0 20 9 23
8 4 12 11 8 17 -3 6 -1 7 6 3 6 -4 9 -11 6 -16 -6 -10 48 -6 65 5 5 3 10 1 10
-4 0 -6 -7 -11 -15 -11 -8 0 -15 -4 -15 -10 0 -13 32 -1 49 19 12 15 13 14 8
-1 -4 -10 -4 -18 0 -18 3 0 12 8 20 18 13 15 13 15 3 -5 -6 -13 -14 -23 -18
-24 -4 0 -24 -2 -44 -3 -41 -2 -55 -10 -39 -21 6 -3 11 -1 11 5 0 6 5 8 10 5
6 -4 8 -11 5 -16 -4 -5 -1 -9 5 -9 7 0 9 7 6 16 -4 9 -1 14 6 12 18 -6 18 -38
0 -38 -8 0 -13 -3 -9 -6 3 -4 14 -3 24 1 30 13 44 14 40 2 -3 -7 -9 -11 -14
-10 -5 1 -10 -5 -10 -13 0 -12 3 -12 17 1 9 8 22 15 28 15 19 0 14 -18 -5 -23
-17 -4 -17 -5 -1 -6 17 -1 47 38 31 40 -4 1 -14 2 -21 3 -7 0 -17 8 -22 16 -5
8 -10 10 -10 4 0 -6 -7 -11 -15 -11 -20 0 -19 2 11 22 15 9 23 12 20 6 -4 -6
-2 -11 4 -11 6 0 8 -5 5 -10 -3 -6 -2 -10 3 -10 14 0 23 28 11 34 -5 2 -4 3 3
2 7 -2 11 -12 10 -22 -3 -15 -1 -17 9 -6 14 13 33 17 25 4 -2 -4 5 -14 16 -21
18 -11 20 -11 15 3 -3 8 -1 18 5 22 7 4 8 3 4 -4 -4 -7 -2 -12 5 -12 8 0 6 -7
-5 -19 -18 -19 -39 -22 -53 -6 -4 4 -3 5 4 1 6 -3 14 -2 17 3 5 7 -14 21 -28
21 -6 0 0 -59 7 -66 4 -5 5 0 1 11 -7 17 -6 18 8 7 11 -9 18 -10 23 -2 3 5 15
10 26 10 11 0 18 4 14 9 -3 6 8 8 26 6 24 -3 29 -2 20 9 -8 9 -7 13 3 13 8 0
13 -8 11 -17 -2 -9 5 -22 16 -28 10 -7 19 -8 19 -3 0 6 -4 13 -10 16 -5 3 -10
11 -10 18 0 6 7 1 16 -11 8 -12 19 -20 23 -17 5 2 6 -7 3 -20 -2 -14 0 -25 7
-25 6 0 8 7 4 17 -6 15 -5 16 8 3 17 -15 18 -19 22 -67 2 -29 3 -31 19 -16 23
20 23 24 1 16 -15 -5 -16 -3 -5 8 6 7 12 18 12 24 0 5 -5 3 -11 -5 -9 -13 -10
-12 -5 3 4 13 2 16 -7 11 -9 -6 -8 -3 1 8 11 13 11 17 0 21 -7 2 -2 2 11 0 20
-3 22 -2 13 10 -12 14 1 37 22 37 5 0 1 -6 -9 -14 -18 -13 -18 -14 6 -27 35
-20 61 -20 54 0 -3 9 7 1 23 -18 28 -31 30 -32 41 -15 7 13 10 15 11 5 0 -11
4 -10 13 4 11 14 16 15 22 5 5 -8 4 -11 -2 -7 -12 8 -26 -20 -17 -34 3 -5 1
-9 -4 -9 -20 0 -20 -26 0 -27 13 -1 18 3 14 13 -6 16 3 18 24 4 13 -9 13 -11
0 -20 -11 -7 -11 -10 -2 -10 7 0 15 7 18 15 4 8 10 12 16 9 5 -3 1 -15 -9 -27
-18 -21 -18 -21 2 -7 11 8 22 16 24 17 2 1 -2 10 -10 19 -12 15 -11 16 9 10
21 -7 22 -6 11 12 -12 20 -13 20 -30 -2 -10 -11 -19 -19 -19 -16 -7 31 -8 62
-2 54 4 -6 15 -10 24 -9 21 4 51 -38 37 -52 -7 -7 0 -16 18 -28 18 -12 24 -13
16 -4 -8 10 -9 20 -3 29 9 15 11 13 14 -12 0 -6 9 -12 19 -14 19 -3 23 12 5
19 -7 2 -9 8 -5 13 5 5 14 3 20 -6 11 -13 15 -12 32 6 24 25 31 48 13 41 -7
-2 -12 -11 -10 -18 3 -11 1 -12 -9 -2 -10 11 -9 16 6 27 15 10 22 11 27 3 4
-6 10 -8 13 -5 4 4 3 13 -1 20 -12 19 -14 37 -4 43 5 3 7 -3 6 -12 -3 -20 21
-63 35 -63 5 0 2 12 -7 28 l-16 27 21 -24 c11 -12 19 -27 16 -31 -3 -5 4 -8
15 -7 20 1 29 17 10 17 -15 0 -32 38 -20 45 6 4 10 3 9 -2 -3 -20 2 -34 11
-28 6 3 11 3 11 -2 6 -36 5 -54 -4 -60 -6 -3 -7 -1 -3 5 3 6 2 13 -3 16 -14 9
-21 -8 -11 -24 7 -12 12 -12 22 -2 22 22 29 13 12 -15 -15 -27 -15 -27 1 -6
14 19 21 21 37 12 16 -8 19 -8 13 1 -5 8 -3 11 6 8 8 -3 14 -10 14 -15 0 -6 4
-15 9 -20 5 -4 7 -4 4 2 -6 12 27 46 36 38 3 -4 1 -12 -5 -20 -6 -7 -7 -13 -2
-13 5 0 15 9 23 19 7 11 18 17 24 14 6 -4 5 1 -3 10 -7 9 -18 14 -25 10 -18
-12 -37 -12 -30 -1 5 7 2 8 -7 2 -8 -4 -18 -9 -24 -10 -5 -1 -18 -5 -28 -9
-12 -5 -17 -3 -15 6 2 8 -3 13 -9 12 -7 -2 -13 2 -13 8 0 6 7 8 15 5 8 -3 22
-9 32 -13 12 -5 14 -3 8 7 -5 8 -4 11 2 7 6 -4 13 0 17 8 3 8 11 15 18 14 10
0 10 -2 1 -6 -7 -2 -13 -9 -13 -14 0 -15 24 -5 37 16 7 11 12 15 13 8 0 -14
28 -43 40 -43 5 0 14 9 20 21 9 15 8 24 -2 37 -11 15 -11 15 3 5 10 -8 19 -9
27 -3 9 7 9 7 2 -2 -16 -20 -11 -32 7 -17 11 10 14 10 9 2 -4 -8 -1 -13 9 -13
10 0 13 5 9 13 -5 7 0 6 11 -3 17 -14 17 -13 11 10 -5 17 -4 21 2 11 8 -11 10
-11 15 0 4 11 7 12 18 1 17 -16 29 -15 29 2 0 8 5 18 11 22 8 4 9 -1 4 -17
l-7 -24 28 25 c16 14 31 26 34 28 2 2 -2 7 -10 12 -10 6 -11 10 -3 10 7 0 17
-9 23 -20 9 -17 6 -27 -16 -55 -14 -19 -22 -35 -16 -35 6 0 14 9 17 20 3 11
11 20 16 20 6 0 7 -5 3 -12 -4 -7 -3 -8 5 -4 6 4 8 13 5 19 -5 9 -3 9 6 0 11
-10 11 -15 0 -28 -7 -8 -10 -15 -7 -15 3 0 15 14 27 31 24 32 21 50 -5 29 -10
-8 -15 -9 -15 -1 0 6 6 11 13 11 8 0 7 4 -3 11 -12 8 -10 9 8 4 13 -4 22 -2
22 4 0 6 -4 11 -10 11 -5 0 -10 5 -10 11 0 8 4 8 15 -1 16 -13 39 -4 29 12 -4
7 -2 8 5 4 6 -4 9 -12 6 -17 -4 -5 1 -9 10 -9 13 0 14 4 5 23 -11 21 -11 21 8
-2 12 -15 22 -20 26 -13 4 6 14 8 23 5 15 -6 16 -5 3 9 -10 10 -19 13 -26 7
-8 -6 -14 -4 -17 5 -4 9 -1 18 5 22 6 4 8 3 5 -3 -4 -7 8 -10 33 -9 29 1 39 5
37 16 -1 10 7 15 23 16 36 0 52 13 45 34 -3 10 -1 21 4 25 7 4 8 -1 4 -11 -5
-13 -3 -15 8 -9 10 7 9 1 -3 -18 -17 -25 -17 -27 2 -37 10 -6 18 -16 16 -23
-1 -6 -1 -9 1 -4 3 4 9 5 13 2 5 -3 12 -1 15 5 4 6 3 10 -2 9 -20 -3 -27 2
-13 11 13 8 13 11 1 22 -11 11 -13 11 -6 -1 6 -10 4 -12 -5 -6 -9 6 -11 4 -5
-5 5 -8 4 -11 -3 -6 -17 10 -5 30 28 44 17 8 30 18 30 23 0 6 -4 8 -8 5 -5 -3
-9 1 -9 9 0 23 13 18 26 -12 9 -19 9 -29 1 -37 -8 -8 -9 -6 -5 9 6 16 5 17 -4
5 -6 -8 -11 -11 -11 -5 0 5 -5 4 -11 -2 -8 -8 -8 -16 1 -30 11 -17 11 -17 6 0
-4 12 -2 17 6 14 7 -2 12 -13 10 -23 -2 -18 -2 -18 8 -1 6 10 16 14 23 10 7
-4 6 0 -2 10 -9 11 -10 17 -2 17 12 0 11 22 -3 31 -5 4 -5 12 -1 18 5 9 11 9
19 1 7 -5 24 -10 37 -10 57 1 73 2 62 7 -9 3 -10 10 -4 22 7 13 5 17 -11 18
-15 2 -17 -1 -8 -12 13 -16 -3 -30 -22 -19 -7 5 -8 3 -3 -7 7 -11 6 -12 -7 -2
-8 7 -17 11 -20 8 -3 -3 -11 1 -18 10 -8 10 -9 15 -1 15 6 0 11 -3 11 -8 0 -4
14 -8 30 -8 24 -1 28 1 20 12 -7 7 -18 10 -26 7 -9 -3 -14 0 -12 8 2 8 -3 13
-12 11 -8 -2 -11 0 -7 4 11 11 38 14 31 3 -3 -5 1 -10 8 -10 7 -1 20 -2 28 -3
8 -1 23 2 33 7 14 6 20 4 24 -12 3 -11 11 -22 18 -25 7 -2 3 14 -12 39 -24 43
-18 70 11 46 7 -6 17 -7 22 -3 5 4 0 -3 -10 -15 -11 -13 -14 -23 -8 -23 7 0
12 5 12 11 0 5 5 7 12 3 8 -5 6 -11 -6 -19 -15 -11 -15 -13 -1 -19 9 -3 13 -2
10 4 -3 6 -1 10 5 10 6 0 10 7 8 16 -2 10 3 19 10 21 6 3 10 -1 9 -9 -2 -7 -2
-10 0 -5 3 4 8 5 11 3 4 -2 13 3 21 11 12 13 11 14 -10 8 -21 -7 -22 -6 -10 8
18 22 7 48 -16 41 -15 -5 -15 -4 -3 4 8 6 18 8 22 6 8 -5 12 17 9 43 -1 6 2
14 6 16 5 3 8 -12 8 -33 0 -23 -4 -36 -10 -32 -5 3 -4 -1 2 -10 7 -8 10 -18 6
-21 -3 -4 -1 -7 6 -7 7 0 11 6 8 14 -3 8 1 17 10 20 11 5 14 2 9 -11 -5 -14
-3 -14 8 2 33 45 51 63 57 59 4 -2 11 1 15 7 4 7 3 9 -4 5 -6 -3 -13 -2 -16 3
-3 5 1 11 9 15 8 3 18 -2 23 -11 6 -11 11 -12 16 -4 4 6 2 11 -4 11 -6 0 -8 5
-5 10 4 6 11 7 17 4 6 -4 8 -2 5 3 -12 19 19 36 42 24 25 -14 31 -14 31 -1 0
5 -3 9 -7 9 -19 -3 -33 2 -33 12 0 5 5 7 10 4 6 -3 10 -2 10 3 0 6 -7 13 -16
16 -10 4 -13 2 -8 -6 5 -7 3 -8 -6 -3 -8 5 -11 4 -6 -3 4 -7 -1 -10 -14 -7
-13 3 -18 0 -14 -7 4 -7 3 -8 -4 -4 -7 4 -10 -1 -7 -14 2 -11 0 -18 -6 -15 -5
4 -7 11 -4 16 8 12 -2 11 -26 -2 -12 -6 -18 -17 -15 -25 3 -8 1 -14 -4 -14 -6
0 -10 8 -10 18 0 17 65 60 82 55 15 -5 8 12 -11 29 -11 9 -23 13 -27 10 -4 -4
-4 -1 0 6 7 11 13 9 30 -6 24 -22 56 -25 56 -6 0 8 6 11 15 8 15 -6 22 11 8
19 -5 2 -2 2 5 1 6 -2 12 2 12 8 0 6 2 9 5 6 9 -8 -17 -58 -26 -52 -5 3 -6 -3
-2 -12 5 -13 10 -9 25 20 10 20 16 41 12 47 -4 7 1 9 14 5 11 -4 23 -2 27 4 3
5 1 10 -4 10 -6 0 -11 5 -11 11 0 6 6 9 14 6 8 -3 19 5 26 19 8 13 19 24 26
24 7 0 16 9 19 20 4 12 11 17 18 13 8 -5 8 -2 0 9 -7 8 -9 19 -5 23 4 5 1 5
-5 1 -8 -4 -13 -2 -13 6 0 10 -3 9 -9 -2 -6 -8 -7 -18 -5 -22 3 -4 0 -8 -5 -8
-6 0 -11 -5 -11 -11 0 -8 6 -7 17 2 14 12 16 12 11 -1 -2 -8 -13 -15 -24 -15
-13 0 -18 -7 -17 -20 1 -11 0 -14 -3 -7 -3 6 -10 12 -16 12 -6 0 -6 -6 2 -15
7 -9 8 -15 2 -15 -18 0 -22 30 -5 37 15 6 14 7 -3 15 -17 7 -16 8 4 4 27 -5
28 1 5 28 l-18 21 24 -20 c22 -18 24 -19 18 -2 -4 10 -7 23 -7 28 0 4 -8 6
-17 3 -15 -5 -15 -4 -3 4 17 13 30 6 30 -15 0 -11 5 -9 19 8 14 18 16 27 8 37
-8 10 -5 14 11 19 12 3 22 10 22 15 0 5 -5 6 -12 2 -6 -4 -8 -3 -5 3 7 11 43
10 54 -2 5 -4 2 -5 -6 0 -10 6 -12 4 -6 -5 6 -9 4 -11 -5 -5 -9 6 -11 4 -5 -5
5 -8 4 -11 -3 -6 -7 4 -10 -1 -7 -14 3 -13 0 -18 -7 -14 -7 5 -8 2 -3 -6 5 -8
4 -11 -3 -6 -6 3 -13 2 -16 -3 -8 -12 36 -22 49 -11 7 6 16 6 20 2 5 -4 5 -1
0 6 -5 10 -10 11 -18 3 -20 -20 -31 -11 -12 9 13 15 21 17 31 9 14 -11 14 6 1
29 -5 6 -6 12 -2 12 3 0 1 10 -6 21 -6 12 -7 19 -1 15 5 -3 12 1 16 9 6 17
-29 41 -39 26 -3 -5 2 -12 10 -14 12 -4 12 -5 -1 -3 -10 0 -18 9 -20 19 -1 9
2 15 7 11 5 -3 9 0 9 6 0 6 7 4 16 -5 13 -13 19 -14 25 -4 4 8 11 10 16 6 4
-5 1 -12 -7 -17 -8 -6 -11 -10 -7 -10 4 0 3 -9 -3 -20 -16 -31 -3 -24 15 8
l15 27 -6 -26 c-6 -28 9 -48 22 -28 4 7 3 9 -3 6 -7 -5 -11 6 -10 29 1 32 2
34 14 18 7 -10 13 -13 13 -8 0 6 -5 15 -11 21 -8 8 -8 13 0 17 6 4 11 2 11 -3
0 -6 5 -11 11 -11 8 0 8 4 0 14 -10 11 -8 17 6 25 10 6 13 11 7 11 -6 0 -14
-3 -18 -7 -4 -5 -13 -8 -19 -8 -7 -1 -11 -7 -9 -14 1 -7 -2 -10 -9 -5 -8 4 -9
3 -5 -4 11 -18 0 -14 -15 5 -8 10 -9 14 -2 10 7 -4 18 2 27 15 14 20 14 24 0
39 -9 10 -14 24 -11 31 4 9 6 7 6 -4 1 -11 6 -15 16 -12 13 5 13 9 3 22 -10
12 -10 14 0 8 7 -4 12 -2 12 4 0 18 23 6 26 -13 1 -11 -2 -15 -9 -11 -7 4 -7
1 1 -7 21 -23 35 10 17 38 -18 27 -19 33 -3 33 6 0 9 -3 6 -6 -4 -3 3 -15 14
-26 11 -11 23 -17 26 -13 4 4 -1 11 -11 16 -9 6 -17 15 -17 21 0 9 3 9 11 1
13 -13 39 -6 39 9 0 6 -6 6 -14 -1 -19 -16 -28 0 -10 17 7 7 16 12 20 11 3 0
9 3 12 7 4 4 1 3 -7 -1 -11 -6 -13 -4 -8 9 4 10 7 20 7 22 0 3 6 2 13 -2 6 -4
9 -4 5 1 -11 11 12 36 26 28 6 -3 5 0 -2 8 -11 12 -14 12 -22 0 -10 -18 -52
-22 -62 -8 -8 14 10 49 21 42 5 -3 11 2 15 10 7 19 -4 19 -32 -1 -13 -9 -25
-14 -28 -12 -2 3 7 11 21 18 14 7 25 17 25 21 0 6 8 6 39 0 2 -1 -2 -8 -9 -16
-14 -17 -8 -28 15 -31 11 -2 12 2 5 15 -6 12 -5 22 2 29 16 16 0 31 -30 26
-25 -4 -26 -3 -8 11 14 10 24 12 38 4 11 -6 22 -8 26 -5 3 3 0 6 -7 6 -7 0 -9
5 -6 10 5 8 12 7 23 -2 15 -11 15 -11 4 3 -10 13 -10 22 -1 42 10 22 15 25 33
16 19 -9 19 -9 4 4 -10 8 -15 17 -11 20 3 4 1 7 -6 7 -8 0 -11 6 -7 16 4 9 2
13 -5 8 -7 -4 -10 -1 -7 7 3 8 11 13 17 11 8 -1 9 2 5 9 -5 9 -2 10 11 5 15
-5 16 -4 5 9 -8 10 -9 15 -1 15 6 0 11 5 11 12 0 9 -3 9 -12 0 -19 -19 -32
-14 -17 6 13 16 13 16 -7 -1 -11 -9 -24 -14 -28 -10 -4 5 -7 1 -6 -7 3 -22
-11 -60 -22 -60 -6 0 -4 10 3 23 18 29 17 63 -1 59 -8 -2 -11 0 -7 5 5 4 13 9
18 9 5 1 14 2 20 3 5 0 7 6 4 11 -4 6 -12 7 -18 3 -7 -3 -3 4 8 17 l20 23 -20
-6 c-19 -7 -19 -6 -2 7 21 16 22 30 1 22 -9 -3 -12 -2 -9 5 4 6 13 8 20 5 7
-2 17 0 22 5 6 6 10 4 10 -5 0 -8 -4 -13 -9 -10 -4 3 -8 0 -8 -5 0 -6 7 -11
16 -11 10 0 14 6 11 14 -3 7 -1 18 5 24 8 8 8 16 -2 27 -14 17 -30 20 -30 5 0
-6 5 -9 11 -8 6 2 13 -3 14 -10 2 -7 1 -8 -2 -2 -3 8 -9 7 -19 0 -15 -13 -34
-5 -33 13 0 9 2 9 6 0 2 -7 9 -13 14 -13 6 0 7 5 3 12 -4 6 2 18 12 26 18 14
18 14 -3 9 -15 -3 -20 -1 -16 9 2 7 12 10 21 6 14 -5 15 -3 5 9 -10 12 -10 18
0 29 10 10 9 12 -5 7 -17 -6 -19 8 -5 31 5 6 5 12 2 12 -3 0 1 10 9 22 19 27
21 42 4 32 -7 -4 -10 -4 -6 1 4 4 2 15 -5 23 -9 13 -9 14 1 8 6 -4 12 -2 12 3
0 6 -6 11 -12 11 -10 0 -9 3 1 9 7 5 9 11 5 13 -5 3 -3 3 5 1 9 -2 11 2 7 13
-3 8 -6 18 -6 20 0 3 -5 2 -11 -2 -7 -4 -4 7 7 25 10 17 23 31 28 31 6 0 5 -5
-1 -11 -6 -6 -9 -19 -6 -28 4 -14 3 -14 -7 -1 -10 13 -11 13 -7 0 2 -8 10 -14
17 -12 7 1 20 -3 29 -10 9 -7 6 -1 -7 14 l-23 26 22 15 22 16 -24 -1 c-13 -1
-31 -7 -40 -15 -13 -11 -16 -11 -16 2 0 8 4 12 9 9 4 -3 8 6 8 20 0 14 -6 26
-12 26 -7 0 -2 7 10 16 12 8 20 20 17 25 -4 5 4 10 17 10 20 1 21 2 3 6 -11 3
-25 9 -31 14 -8 7 -11 1 -9 -21 1 -16 -1 -30 -5 -30 -3 0 -7 15 -7 34 0 28 6
37 31 50 25 13 26 15 6 10 -22 -6 -23 -5 -11 10 11 13 11 22 1 46 -7 16 -17
30 -23 30 -7 0 -7 -4 1 -12 13 -13 16 -32 4 -24 -4 2 -8 -6 -8 -19 0 -13 3
-22 6 -20 4 2 7 -2 7 -10 0 -8 -4 -15 -9 -15 -8 0 -10 5 -11 38 -1 9 -6 20
-12 24 -6 5 -5 8 3 8 7 0 10 5 7 10 -9 14 -17 59 -18 92 0 15 -4 25 -7 23 -4
-3 -7 20 -6 50 1 30 -1 49 -5 43 -5 -7 -11 -9 -15 -5 -4 3 -2 13 5 21 9 11 8
15 -4 20 -8 3 -15 9 -14 13 1 4 0 10 -1 13 -1 3 -3 12 -5 20 -8 38 -11 45 -19
51 -5 4 -5 13 0 20 5 8 10 25 11 39 2 22 1 23 -6 5 -5 -11 -6 -24 -3 -29 3 -5
0 -6 -7 -2 -6 4 -9 11 -6 16 3 4 1 10 -5 12 -5 1 -11 12 -13 23 -6 28 -16 54
-38 96 -21 41 -25 64 -7 53 7 -4 8 -3 4 5 -4 6 -12 9 -17 5 -8 -5 -37 48 -37
69 -1 5 -9 16 -19 24 -17 14 -17 14 0 9 11 -3 16 -2 12 4 -3 6 -12 10 -18 10
-20 0 -47 56 -33 70 8 8 6 9 -8 4 -16 -6 -18 -4 -13 10 4 9 3 15 -2 12 -5 -3
-14 1 -21 9 -7 8 -10 15 -7 15 3 0 -5 12 -19 27 -13 14 -22 28 -19 31 2 3 -7
15 -21 27 -17 15 -24 28 -19 36 5 8 5 11 1 7 -12 -10 -49 28 -41 41 4 7 1 10
-7 9 -7 -2 -12 3 -11 9 2 7 -1 12 -6 10 -5 -1 -48 37 -95 85 -47 48 -86 85
-86 81 0 -3 -8 3 -17 13 -10 11 -34 31 -55 46 -20 15 -42 33 -50 40 -8 7 -23
19 -33 26 -11 7 -33 21 -50 32 -16 10 -35 23 -41 28 -6 6 -44 27 -85 48 -41
21 -76 40 -79 43 -3 3 -9 7 -15 8 -5 1 -52 20 -103 43 -145 63 -343 115 -517
136 -80 9 -314 11 -395 3z m2120 -1685 c0 -8 -5 -12 -10 -9 -6 4 -8 11 -5 16
9 14 15 11 15 -7z m-35 -734 c-13 -14 -14 -23 -6 -39 9 -17 7 -29 -10 -62 -14
-28 -24 -38 -29 -30 -4 7 -11 12 -16 12 -5 -1 -10 8 -10 19 -1 11 2 17 6 15 4
-3 13 2 19 9 10 11 8 17 -6 25 -13 9 -14 11 -3 10 28 -3 41 1 36 10 -8 12 17
60 27 54 5 -3 1 -13 -8 -23z m-55 -66 c0 -2 -7 -4 -15 -4 -8 0 -15 4 -15 10 0
5 7 7 15 4 8 -4 15 -8 15 -10z m-30 -74 c-8 -5 -19 -10 -25 -10 -5 0 -3 5 5
10 8 5 20 10 25 10 6 0 3 -5 -5 -10z m-44 -146 c-4 -12 -2 -15 9 -10 35 14 50
17 40 9 -5 -4 -11 -15 -13 -23 -6 -24 -33 -49 -48 -43 -10 4 -8 9 9 24 12 10
17 18 10 19 -6 0 -15 -4 -18 -10 -3 -5 -12 -10 -18 -10 -7 0 -6 4 3 10 8 5 16
14 16 20 1 5 2 15 3 20 0 6 4 10 7 10 3 0 3 -7 0 -16z m-26 -14 c0 -5 -5 -10
-11 -10 -5 0 -7 5 -4 10 3 6 8 10 11 10 2 0 4 -4 4 -10z m-10 -55 c0 -7 -30
-13 -34 -7 -3 4 4 9 15 9 10 1 19 0 19 -2z m-3433 -12 c-4 -3 -2 -12 5 -20 8
-11 7 -12 -6 -7 -9 3 -16 9 -16 13 0 9 11 21 18 21 3 0 2 -3 -1 -7z m3413 -17
c0 -2 -7 -7 -16 -10 -8 -3 -12 -2 -9 4 6 10 25 14 25 6z m-27 -92 c-6 -16 -23
-19 -23 -4 0 6 5 10 11 10 8 0 7 6 -2 18 -13 15 -12 16 3 4 9 -8 14 -20 11
-28z m-36 -21 c-4 -3 -2 -12 4 -20 7 -8 8 -13 1 -13 -12 0 -23 26 -15 34 4 3
9 6 11 6 3 0 2 -3 -1 -7z m-3273 -18 c-4 -8 -11 -12 -16 -9 -6 4 -5 10 3 15
19 12 19 11 13 -6z m3241 -73 c-3 -3 -11 0 -18 7 -9 10 -8 11 6 5 10 -3 15 -9
12 -12z m31 -54 c4 -7 4 -10 -1 -6 -4 4 -15 2 -24 -5 -14 -11 -14 -10 -2 6 16
20 18 21 27 5z m-92 -13 c3 -8 1 -15 -4 -15 -6 0 -10 7 -10 15 0 8 2 15 4 15
2 0 6 -7 10 -15z m-3034 -65 c0 -5 -5 -10 -11 -10 -5 0 -7 5 -4 10 3 6 8 10
11 10 2 0 4 -4 4 -10z m2975 0 c4 -6 1 -9 -7 -8 -8 2 -12 -6 -11 -22 2 -22 1
-23 -8 -7 -8 13 -7 22 1 33 15 17 17 17 25 4z m-40 -76 c-4 -31 -2 -34 11 -23
8 7 12 19 9 28 -3 8 -2 12 2 7 14 -14 10 -52 -7 -52 -8 -1 -22 -4 -31 -8 -11
-5 -19 -1 -23 10 -5 14 -4 15 8 5 11 -9 15 -7 18 13 3 14 0 30 -6 37 -8 9 -8
10 2 5 6 -4 12 -2 12 3 0 6 2 11 5 11 3 0 3 -16 0 -36z m-2852 -48 c-4 -5 1
-7 10 -3 9 3 19 2 22 -4 4 -5 11 -7 16 -4 5 4 9 1 9 -4 0 -6 -3 -11 -7 -12 -5
0 -16 -2 -25 -4 -19 -4 -47 33 -40 54 4 11 6 11 13 0 4 -7 5 -17 2 -23z m2803
-22 c-3 -9 -6 -18 -6 -20 0 -2 -6 -4 -14 -4 -20 0 -29 17 -15 26 8 5 9 3 4 -6
-5 -8 -3 -11 6 -8 8 3 13 11 12 17 -2 6 2 11 8 11 6 0 8 -7 5 -16z m-91 -42
c-3 -3 -11 0 -18 7 -9 10 -8 11 6 5 10 -3 15 -9 12 -12z m-22 -27 c-3 -9 -8
-14 -10 -11 -3 3 -2 9 2 15 9 16 15 13 8 -4z m-30 -10 c-3 -9 -8 -14 -10 -11
-3 3 -2 9 2 15 9 16 15 13 8 -4z m117 1 c0 -2 -8 -10 -17 -17 -16 -13 -17 -12
-4 4 13 16 21 21 21 13z m-117 -41 c-3 -9 -8 -14 -10 -11 -3 3 -2 9 2 15 9 16
15 13 8 -4z m57 5 c0 -5 -5 -10 -11 -10 -5 0 -7 5 -4 10 3 6 8 10 11 10 2 0 4
-4 4 -10z m-2503 -15 c0 -8 -4 -12 -9 -9 -5 3 -6 10 -3 15 9 13 12 11 12 -6z
m2429 -24 c-3 -5 1 -11 9 -14 9 -4 12 -1 9 8 -4 9 1 13 14 12 20 -1 20 -2 -1
-28 -14 -17 -25 -22 -29 -15 -5 8 -8 7 -8 -1 0 -7 -5 -13 -11 -13 -8 0 -8 4 0
14 6 7 9 21 5 30 -3 9 -1 16 6 16 6 0 9 -4 6 -9z m-2346 -59 c0 -1 -9 2 -20 8
-11 6 -20 15 -20 20 0 6 9 2 20 -7 11 -10 20 -19 20 -21z m2215 -4 c-9 -6 -19
-7 -22 -4 -4 3 -1 6 6 6 7 0 9 4 6 10 -4 6 1 7 11 3 15 -6 15 -7 -1 -15z m55
-22 c0 -6 5 -4 11 4 7 10 9 11 7 2 -2 -8 -8 -14 -13 -14 -6 -1 -16 -8 -23 -17
-7 -9 -12 -11 -11 -6 3 23 -2 36 -11 30 -5 -3 -10 -2 -10 3 0 5 11 10 25 10
14 0 25 -6 25 -12z m-103 -48 c-6 -4 -16 -8 -22 -8 -5 0 -4 4 4 9 8 5 11 16 7
27 -6 18 -5 17 9 0 12 -16 12 -22 2 -28z m-121 -33 c-8 -7 -12 -16 -8 -20 4
-5 2 -5 -5 -1 -16 9 -6 33 14 33 14 0 14 -1 -1 -12z m-1966 -13 c0 -12 -3 -12
-15 -2 -8 7 -15 13 -15 15 0 1 7 2 15 2 8 0 15 -7 15 -15z m1910 4 c0 -2 -8
-10 -17 -17 -16 -13 -17 -12 -4 4 13 16 21 21 21 13z m-5 -54 c-3 -3 -11 0
-18 7 -9 10 -8 11 6 5 10 -3 15 -9 12 -12z m-1668 -7 c0 -8 -4 -15 -9 -15 -10
0 -11 14 -1 23 9 10 10 9 10 -8z m1548 -5 c-10 -11 -15 -20 -10 -20 4 0 2 -7
-5 -15 -7 -8 -17 -15 -23 -15 -6 0 -2 7 9 15 10 8 15 15 10 15 -9 0 23 40 32
40 3 0 -3 -9 -13 -20z m52 -12 c-3 -8 -6 -5 -6 6 -1 11 2 17 5 13 3 -3 4 -12
1 -19z m-162 -38 c3 -5 -4 -6 -15 -3 -11 3 -22 9 -25 13 -3 5 4 6 15 3 11 -3
22 -9 25 -13z m45 16 c0 -2 -7 -7 -16 -10 -8 -3 -12 -2 -9 4 6 10 25 14 25 6z
m-100 -42 c0 -8 -19 -13 -24 -6 -3 5 1 9 9 9 8 0 15 -2 15 -3z m-1065 -24 c3
-5 1 -10 -4 -10 -6 0 -11 5 -11 10 0 6 2 10 4 10 3 0 8 -4 11 -10z m918 -15
c-6 -17 -33 -21 -33 -5 0 6 6 9 13 8 6 -2 11 3 9 10 -1 8 2 11 7 7 6 -3 8 -12
4 -20z m31 -5 c-10 -16 -20 -28 -22 -26 -4 5 28 56 35 56 2 0 -4 -13 -13 -30z
m101 12 c-3 -3 -11 0 -18 7 -9 10 -8 11 6 5 10 -3 15 -9 12 -12z m-68 -7 c0
-8 -4 -12 -9 -9 -5 3 -6 10 -3 15 9 13 12 11 12 -6z m-949 -20 c-3 -3 -9 2
-12 12 -6 14 -5 15 5 6 7 -7 10 -15 7 -18z m97 -13 c-3 -3 -11 0 -18 7 -9 10
-8 11 6 5 10 -3 15 -9 12 -12z m69 6 c-3 -4 -11 -5 -19 -1 -21 7 -19 12 4 10
11 0 18 -5 15 -9z m80 -4 c3 -8 2 -12 -4 -9 -6 3 -10 10 -10 16 0 14 7 11 14
-7z m339 -9 c-3 -8 -10 -15 -15 -15 -7 0 -6 5 1 13 6 8 7 18 3 22 -4 5 -2 5 5
1 7 -4 10 -13 6 -21z m147 21 c0 -2 -7 -7 -16 -10 -8 -3 -12 -2 -9 4 6 10 25
14 25 6z m54 -8 c-3 -4 -11 -5 -19 -1 -21 7 -19 12 4 10 11 0 18 -5 15 -9z
m49 -5 c-3 -7 -9 -13 -13 -13 -4 0 -10 6 -13 13 -3 7 3 13 13 13 10 0 16 -6
13 -13z m-466 -15 c-3 -8 -6 -5 -6 6 -1 11 2 17 5 13 3 -3 4 -12 1 -19z m-194
-3 c-3 -9 -8 -14 -10 -11 -3 3 -2 9 2 15 9 16 15 13 8 -4z m117 3 c0 -4 -4 -8
-9 -8 -6 0 -12 4 -15 8 -3 5 1 9 9 9 8 0 15 -4 15 -9z m50 -23 c-7 -8 -9 -19
-5 -23 4 -4 10 -1 12 6 3 7 14 17 26 23 12 7 19 8 15 4 -4 -4 2 -16 12 -28 24
-25 15 -44 -11 -21 -13 12 -19 13 -19 4 0 -7 -7 -10 -15 -6 -9 3 -18 -1 -21
-9 -4 -8 -11 -15 -16 -15 -6 0 -6 6 1 14 9 11 10 20 1 35 -10 20 -7 25 14 22
5 -1 5 6 2 16 -6 14 -5 15 5 6 10 -10 9 -16 -1 -28z m287 12 c1 -11 1 -18 0
-16 -2 2 -8 11 -15 20 -9 12 -9 16 1 16 7 0 14 -9 14 -20z m58 13 c-3 -5 -16
-10 -28 -9 -20 1 -20 2 3 9 14 4 26 8 28 9 2 1 0 -3 -3 -9z m39 -5 c-5 -11 -2
-13 9 -9 12 4 15 0 14 -15 -1 -21 -2 -21 -20 -2 -11 10 -16 24 -13 30 10 16
16 13 10 -4z m-114 -26 c0 -6 -4 -7 -10 -4 -5 3 -10 11 -10 16 0 6 5 7 10 4 6
-3 10 -11 10 -16z m-380 -9 c0 -5 -5 -10 -11 -10 -5 0 -7 5 -4 10 3 6 8 10 11
10 2 0 4 -4 4 -10z m430 -42 c0 -4 -4 -8 -9 -8 -6 0 -12 4 -15 8 -3 5 1 9 9 9
8 0 15 -4 15 -9z"/>
<path d="M4034 1611 c3 -4 -3 -16 -14 -26 -24 -21 -26 -34 -5 -31 20 3 25 9
31 40 2 15 0 26 -6 26 -6 0 -9 -4 -6 -9z m-1 -36 c-3 -9 -8 -14 -10 -11 -3 3
-2 9 2 15 9 16 15 13 8 -4z"/>
<path d="M3939 1333 c-13 -16 -12 -17 4 -4 16 13 21 21 13 21 -2 0 -10 -8 -17
-17z"/>
<path d="M786 812 c-3 -5 1 -9 9 -9 8 0 12 4 9 9 -3 4 -7 8 -9 8 -2 0 -6 -4
-9 -8z"/>
<path d="M2095 203 c-5 -14 -4 -15 6 -6 10 10 17 9 33 -5 21 -17 21 -17 2 6
-23 27 -32 28 -41 5z"/>
<path d="M3810 3195 c0 -5 5 -17 10 -25 5 -8 10 -10 10 -5 0 6 -5 17 -10 25
-5 8 -10 11 -10 5z"/>
<path d="M3907 2989 c7 -7 15 -10 18 -7 3 3 -2 9 -12 12 -14 6 -15 5 -6 -5z"/>
<path d="M3941 2966 c-9 -11 -9 -16 1 -22 7 -4 10 -4 6 1 -4 4 -3 14 3 22 6 7
9 13 6 13 -2 0 -10 -6 -16 -14z"/>
<path d="M3945 2910 c-3 -6 1 -7 9 -4 18 7 21 14 7 14 -6 0 -13 -4 -16 -10z"/>
<path d="M3956 2868 c3 -4 11 -5 19 -1 21 7 19 12 -4 10 -11 0 -18 -5 -15 -9z"/>
<path d="M3996 2773 c3 -16 6 -33 6 -40 1 -7 7 -14 15 -17 11 -5 11 -1 -1 22
-7 15 -12 35 -11 45 2 9 -1 17 -6 17 -5 0 -7 -12 -3 -27z"/>
<path d="M4036 2701 c-3 -4 1 -17 10 -27 14 -18 15 -18 5 2 -6 12 -7 24 -4 28
3 3 4 6 0 6 -3 0 -8 -4 -11 -9z"/>
<path d="M4043 2616 c1 -11 9 -21 17 -23 10 -3 11 -2 4 4 -6 4 -14 15 -17 23
-5 11 -6 9 -4 -4z"/>
<path d="M4070 2581 c-8 -6 -18 -7 -24 -4 -5 3 -6 1 -2 -5 5 -9 13 -9 27 -2
10 6 19 13 19 15 0 7 -3 6 -20 -4z"/>
<path d="M4061 2546 c-8 -10 -9 -21 -3 -33 5 -10 8 -26 7 -36 -2 -9 1 -15 6
-11 5 3 7 10 4 15 -4 5 -1 9 4 9 6 0 11 5 11 11 0 5 -5 7 -11 3 -7 -4 -10 -1
-7 7 3 8 11 13 17 11 7 -1 10 2 6 8 -5 8 -11 7 -21 -1 -17 -14 -19 2 -2 19 7
7 9 12 6 12 -3 0 -11 -6 -17 -14z"/>
<path d="M4110 2529 c0 -5 5 -7 10 -4 6 3 10 8 10 11 0 2 -4 4 -10 4 -5 0 -10
-5 -10 -11z"/>
<path d="M4096 2468 c3 -4 11 -5 19 -1 21 7 19 12 -4 10 -11 0 -18 -5 -15 -9z"/>
<path d="M4100 2346 c0 -2 7 -7 16 -10 8 -3 12 -2 9 4 -6 10 -25 14 -25 6z"/>
<path d="M4101 2271 c-9 -6 -10 -11 -2 -15 6 -4 9 -11 7 -15 -3 -4 2 -8 10 -8
10 0 11 4 4 11 -13 13 -13 29 0 21 6 -3 10 -1 10 4 0 13 -10 14 -29 2z"/>
<path d="M4135 2190 c-4 -6 -1 -9 7 -8 7 2 12 -3 10 -10 -1 -8 2 -11 8 -7 8 5
7 11 -1 21 -14 17 -16 17 -24 4z"/>
<path d="M4117 2125 c3 -10 1 -15 -7 -13 -18 4 -20 -40 -3 -54 8 -6 13 -7 12
-2 -4 21 2 28 12 14 9 -13 10 -12 5 3 -3 9 0 17 6 17 6 0 8 3 5 6 -4 4 -13 1
-22 -6 -9 -8 -15 -8 -15 -2 0 6 5 14 10 17 13 8 13 35 0 35 -5 0 -7 -7 -3 -15z"/>
<path d="M4106 2029 c-15 -12 -25 -24 -22 -27 3 -3 0 -12 -7 -20 -8 -10 -8
-13 -1 -9 7 4 14 0 18 -8 3 -8 1 -17 -5 -20 -5 -4 -7 -11 -3 -16 4 -6 10 -6
18 0 7 6 16 8 19 4 4 -3 7 -2 7 4 0 6 -7 13 -15 17 -15 5 -22 27 -7 25 4 -1
14 -1 22 0 12 1 12 4 -2 12 -17 9 -17 12 -2 34 20 31 15 31 -20 4z m6 -11 c-7
-7 -8 -16 -2 -23 7 -8 5 -12 -4 -12 -8 0 -13 5 -12 11 2 15 16 36 24 36 3 0 1
-5 -6 -12z"/>
<path d="M4136 2012 c-3 -5 1 -9 9 -9 8 0 12 4 9 9 -3 4 -7 8 -9 8 -2 0 -6 -4
-9 -8z"/>
<path d="M4105 1912 c-15 -11 -16 -30 -1 -35 10 -4 12 1 8 15 -3 14 -1 19 6
14 7 -4 12 -2 12 3 0 13 -11 14 -25 3z"/>
<path d="M4136 1883 c-6 -14 -5 -15 5 -6 7 7 10 15 7 18 -3 3 -9 -2 -12 -12z"/>
<path d="M250 1849 c0 -5 5 -7 10 -4 6 3 10 8 10 11 0 2 -4 4 -10 4 -5 0 -10
-5 -10 -11z"/>
<path d="M4133 1815 c0 -8 4 -12 9 -9 5 3 6 10 3 15 -9 13 -12 11 -12 -6z"/>
<path d="M4065 1791 c3 -5 1 -13 -5 -16 -8 -5 -8 -11 0 -20 8 -10 7 -16 -6
-23 -11 -6 -13 -11 -5 -16 6 -4 11 -2 11 4 0 6 11 16 25 22 22 10 23 13 10 20
-8 5 -13 13 -10 18 3 4 -2 11 -11 14 -8 3 -12 2 -9 -3z m20 -39 c-3 -3 -11 0
-18 7 -9 10 -8 11 6 5 10 -3 15 -9 12 -12z"/>
<path d="M4105 1789 c-4 -6 -5 -12 -2 -15 2 -3 7 2 10 11 7 17 1 20 -8 4z"/>
<path d="M4134 1776 c1 -8 5 -18 8 -22 4 -3 5 1 4 10 -1 8 -5 18 -8 22 -4 3
-5 -1 -4 -10z"/>
<path d="M4108 1733 c7 -3 16 -2 19 1 4 3 -2 6 -13 5 -11 0 -14 -3 -6 -6z"/>
<path d="M4130 1711 c0 -6 4 -13 10 -16 6 -3 7 1 4 9 -7 18 -14 21 -14 7z"/>
<path d="M291 1677 c-8 -10 -7 -14 2 -14 8 0 14 6 14 14 0 7 -1 13 -2 13 -2 0
-8 -6 -14 -13z"/>
<path d="M4096 1643 c-6 -14 -5 -15 5 -6 7 7 10 15 7 18 -3 3 -9 -2 -12 -12z"/>
<path d="M313 1580 c-1 -11 2 -20 7 -20 4 0 7 7 6 15 -3 23 -12 26 -13 5z"/>
<path d="M330 1541 c0 -7 -5 -9 -12 -5 -7 5 -8 3 -3 -5 5 -9 10 -10 18 -2 6 6
8 14 4 18 -4 3 -7 1 -7 -6z"/>
<path d="M342 1517 c-8 -10 -6 -16 9 -25 11 -7 19 -8 19 -2 0 5 -5 10 -11 10
-6 0 -9 7 -5 15 7 18 2 19 -12 2z"/>
<path d="M4051 1501 c-8 -5 -9 -11 -3 -15 5 -3 12 1 16 9 6 17 6 18 -13 6z"/>
<path d="M4030 1461 c0 -6 4 -13 10 -16 6 -3 7 1 4 9 -7 18 -14 21 -14 7z"/>
<path d="M339 1458 c-5 -18 -6 -38 -1 -34 7 8 12 36 6 36 -2 0 -4 -1 -5 -2z"/>
<path d="M3966 1428 c3 -4 0 -8 -6 -8 -6 0 -8 -5 -5 -10 5 -8 11 -8 19 -1 7 6
16 8 20 4 4 -4 4 0 1 8 -3 9 -12 16 -20 16 -8 0 -12 -4 -9 -9z"/>
<path d="M4010 1349 c0 -5 5 -7 10 -4 6 3 10 8 10 11 0 2 -4 4 -10 4 -5 0 -10
-5 -10 -11z"/>
<path d="M411 1298 c-14 -23 -14 -23 8 -4 22 20 25 26 13 26 -4 0 -13 -10 -21
-22z"/>
<path d="M3881 1230 c-10 -5 -10 -9 -2 -14 6 -4 8 -12 5 -18 -4 -6 0 -6 13 1
11 6 23 7 27 4 3 -3 6 -2 6 3 0 15 -36 33 -49 24z"/>
<path d="M3916 1157 c3 -10 9 -15 12 -12 3 3 0 11 -7 18 -10 9 -11 8 -5 -6z"/>
<path d="M486 1132 c-3 -5 1 -9 9 -9 8 0 15 4 15 9 0 4 -4 8 -9 8 -6 0 -12 -4
-15 -8z"/>
<path d="M515 1089 c6 -32 13 -34 13 -4 0 14 -4 25 -9 25 -4 0 -6 -10 -4 -21z"/>
<path d="M574 1076 c4 -13 2 -17 -7 -13 -8 3 -14 -1 -14 -9 0 -7 4 -11 9 -8 4
3 8 1 8 -5 0 -5 -6 -12 -12 -15 -9 -4 -8 -5 2 -4 23 2 51 -13 44 -23 -3 -5
-10 -6 -16 -3 -7 4 -8 2 -4 -4 5 -9 12 -8 26 0 18 12 18 13 2 22 -22 12 -33
28 -28 42 2 6 0 17 -6 25 -8 11 -9 10 -4 -5z"/>
<path d="M3890 1071 c0 -6 4 -13 10 -16 6 -3 7 1 4 9 -7 18 -14 21 -14 7z"/>
<path d="M3830 1049 c0 -5 5 -7 10 -4 6 3 10 8 10 11 0 2 -4 4 -10 4 -5 0 -10
-5 -10 -11z"/>
<path d="M516 1023 c-6 -14 -5 -15 5 -6 7 7 10 15 7 18 -3 3 -9 -2 -12 -12z"/>
<path d="M3745 1020 c4 -6 11 -8 16 -5 14 9 11 15 -7 15 -8 0 -12 -5 -9 -10z"/>
<path d="M611 964 c0 -11 3 -14 6 -6 3 7 2 16 -1 19 -3 4 -6 -2 -5 -13z"/>
<path d="M3760 910 c-9 -6 -10 -10 -3 -10 6 0 15 5 18 10 8 12 4 12 -15 0z"/>
<path d="M3720 870 c-8 -5 -12 -12 -9 -15 4 -3 12 1 19 10 14 17 11 19 -10 5z"/>
<path d="M3686 808 c3 -5 10 -6 15 -3 13 9 11 12 -6 12 -8 0 -12 -4 -9 -9z"/>
<path d="M750 781 c0 -6 4 -13 10 -16 6 -3 7 1 4 9 -7 18 -14 21 -14 7z"/>
<path d="M789 760 c-13 -10 -18 -19 -11 -20 6 0 12 5 12 10 0 18 17 10 28 -12
9 -21 11 -21 11 -4 1 11 4 16 9 12 7 -7 8 -11 11 -37 0 -6 10 -8 24 -4 12 3
18 3 12 -2 -14 -11 -17 -40 -5 -48 6 -4 7 1 3 12 -6 16 -5 16 10 4 9 -7 15
-17 12 -21 -3 -5 -1 -11 4 -14 5 -4 8 -17 7 -31 -2 -13 1 -22 6 -19 5 3 7 12
4 19 -7 20 22 41 36 27 9 -9 8 -12 -5 -12 -9 0 -17 -5 -17 -10 0 -7 6 -7 20 0
14 8 20 8 20 0 0 -6 -10 -15 -22 -20 -14 -5 -17 -9 -7 -9 8 -1 21 5 28 12 11
10 13 9 7 -5 -16 -45 -16 -51 0 -23 10 18 19 25 22 17 2 -7 -2 -19 -8 -27 -7
-8 -8 -15 -3 -15 5 0 15 11 21 25 7 15 8 25 2 25 -6 0 -10 8 -11 18 0 11 -2
12 -6 4 -3 -9 -13 -2 -29 19 -13 18 -24 29 -24 24 0 -4 -9 0 -21 11 -12 10
-24 18 -28 17 -3 -2 -6 3 -6 10 -1 10 -71 87 -80 87 -1 0 -13 -9 -26 -20z
m141 -117 c0 -19 -13 -9 -16 12 -1 8 2 13 7 9 5 -3 9 -12 9 -21z"/>
<path d="M3548 682 c-3 -10 0 -19 6 -19 7 0 12 9 12 19 0 10 -3 18 -7 18 -4 0
-9 -8 -11 -18z"/>
<path d="M850 655 c0 -5 5 -17 10 -25 5 -8 10 -10 10 -5 0 6 -5 17 -10 25 -5
8 -10 11 -10 5z"/>
<path d="M3495 629 c-4 -6 -5 -12 -2 -15 2 -3 7 2 10 11 7 17 1 20 -8 4z"/>
<path d="M3450 608 c0 -4 4 -8 9 -8 6 0 12 4 15 8 3 5 -1 9 -9 9 -8 0 -15 -4
-15 -9z"/>
<path d="M1120 542 c-8 -4 -16 -15 -18 -26 -4 -22 13 -13 28 15 6 10 9 19 8
18 -2 0 -10 -3 -18 -7z"/>
<path d="M3266 535 c4 -8 10 -12 15 -9 11 6 2 24 -11 24 -5 0 -7 -7 -4 -15z"/>
<path d="M3337 485 c-4 -8 -3 -16 1 -19 4 -3 9 4 9 15 2 23 -3 25 -10 4z"/>
<path d="M1093 465 c0 -8 4 -12 9 -9 5 3 6 10 3 15 -9 13 -12 11 -12 -6z"/>
<path d="M1197 443 c-16 -8 -27 -17 -24 -19 7 -7 57 18 57 28 0 4 -1 8 -2 7
-2 -1 -16 -8 -31 -16z"/>
<path d="M1254 438 c-4 -7 -4 -10 1 -6 4 4 17 3 27 -3 16 -9 19 -8 16 3 -6 18
-34 22 -44 6z"/>
<path d="M3144 422 c-21 -15 -9 -37 21 -39 20 -1 25 1 16 6 -8 5 -20 7 -28 4
-9 -4 -11 0 -7 11 5 12 10 13 24 6 13 -7 21 -6 26 2 4 7 4 10 -1 6 -4 -4 -15
-3 -24 2 -10 5 -21 6 -27 2z"/>
<path d="M1230 386 c0 -2 7 -9 15 -16 13 -11 14 -10 9 4 -5 14 -24 23 -24 12z"/>
<path d="M1324 368 c3 -12 34 -13 45 -2 11 11 -10 15 -23 5 -10 -8 -16 -9 -19
-1 -3 6 -4 5 -3 -2z"/>
<path d="M1274 356 c1 -8 5 -18 8 -22 4 -3 5 1 4 10 -1 8 -5 18 -8 22 -4 3 -5
-1 -4 -10z"/>
<path d="M2946 356 c7 -19 -33 -59 -52 -52 -7 3 -18 -3 -23 -12 -8 -14 -10
-14 -11 -2 0 12 -2 12 -9 2 -10 -16 -21 -18 -30 -4 -4 6 -11 4 -19 -4 -8 -9
-9 -14 -2 -14 7 0 8 -6 1 -18 -7 -14 -6 -18 9 -18 10 0 17 3 15 7 -3 3 5 15
16 25 20 18 20 18 15 -11 -6 -28 -6 -29 4 -5 6 14 21 30 35 37 21 9 27 8 36
-5 8 -14 9 -14 4 4 -5 19 -2 21 24 19 29 -2 29 -2 15 20 -10 16 -12 25 -5 30
11 6 12 5 15 -16 0 -6 12 -18 26 -26 22 -14 23 -14 7 0 -12 10 -15 17 -7 22
18 11 -5 30 -39 33 -23 2 -29 -1 -25 -12z m59 -5 c3 -5 2 -12 -3 -15 -5 -3 -9
1 -9 9 0 17 3 19 12 6z m-42 -24 c3 -8 -1 -14 -8 -14 -7 0 -11 6 -8 14 6 16
10 16 16 0z m-123 -52 c0 -2 -6 -8 -13 -14 -10 -8 -14 -7 -14 2 0 8 6 14 14
14 7 0 13 -1 13 -2z"/>
<path d="M3110 349 c0 -5 5 -7 10 -4 6 3 10 8 10 11 0 2 -4 4 -10 4 -5 0 -10
-5 -10 -11z"/>
<path d="M2910 330 c0 -5 5 -10 10 -10 6 0 10 5 10 10 0 6 -4 10 -10 10 -5 0
-10 -4 -10 -10z"/>
<path d="M1355 310 c3 -5 8 -10 11 -10 2 0 4 5 4 10 0 6 -5 10 -11 10 -5 0 -7
-4 -4 -10z"/>
<path d="M1600 275 c-7 -8 -16 -13 -20 -10 -4 3 -14 -3 -21 -12 -10 -12 -10
-14 -1 -9 7 4 12 2 12 -5 0 -7 6 -4 14 7 8 11 18 15 23 10 4 -5 2 -11 -4 -13
-19 -7 -15 -22 5 -18 10 1 16 9 14 21 -2 16 -1 16 7 4 6 -8 8 -24 5 -35 -4
-11 -3 -17 1 -12 13 11 13 51 1 59 -8 6 -7 8 1 8 15 0 26 -17 27 -41 1 -11 5
-19 10 -18 5 0 13 -5 17 -13 6 -9 9 -9 9 -1 0 6 8 14 18 17 9 2 2 3 -16 1 -29
-3 -32 -1 -28 21 4 19 -2 27 -24 39 -36 18 -35 18 -50 0z m30 1 c0 -3 -4 -8
-10 -11 -5 -3 -10 -1 -10 4 0 6 5 11 10 11 6 0 10 -2 10 -4z"/>
<path d="M2692 254 c-18 -14 -32 -22 -32 -17 0 4 -5 1 -10 -7 -8 -13 -11 -12
-24 5 -14 19 -15 19 -27 -8 -7 -15 -16 -27 -21 -27 -5 0 -6 5 -2 11 4 8 0 8
-15 0 -16 -9 -21 -9 -21 1 0 10 -2 10 -9 -1 -6 -10 -10 -10 -13 -1 -2 7 -9 1
-15 -13 -11 -23 -10 -25 4 -20 10 4 14 2 10 -4 -3 -5 0 -10 8 -10 11 0 12 4 4
13 -14 17 3 25 19 8 7 -7 12 -16 11 -20 0 -3 2 -8 4 -11 8 -7 3 20 -6 35 -11
17 -1 15 31 -5 22 -14 25 -15 15 -2 -10 12 -10 19 1 34 13 18 14 18 12 -5 -1
-18 5 -25 19 -27 19 -3 19 -3 1 5 -14 6 -16 11 -8 16 7 4 17 4 24 0 7 -4 8 -3
4 4 -4 7 -2 12 5 12 6 0 9 -8 6 -20 -3 -11 -1 -18 4 -14 5 3 9 11 9 18 0 7 12
25 27 40 35 35 26 41 -15 10z"/>
<path d="M2910 273 c0 -6 8 -17 18 -24 16 -13 16 -13 2 6 -8 11 -16 22 -17 24
-2 2 -3 0 -3 -6z"/>
<path d="M2995 259 c-4 -6 -5 -12 -2 -15 2 -3 7 2 10 11 7 17 1 20 -8 4z"/>
<path d="M1685 251 c-3 -5 -1 -12 5 -16 5 -3 10 1 10 9 0 18 -6 21 -15 7z"/>
<path d="M1782 243 c-13 -5 -7 -23 9 -23 6 0 7 5 3 12 -4 7 -3 8 5 4 8 -5 9
-12 2 -20 -6 -8 -3 -19 11 -36 11 -14 17 -19 13 -13 -16 31 -14 52 6 50 19 -1
28 -17 9 -17 -5 0 -10 -5 -10 -11 0 -8 4 -9 13 0 8 6 17 8 20 4 4 -3 -1 -12
-11 -20 -15 -11 -13 -12 11 -2 15 7 27 16 27 21 0 5 4 7 9 4 5 -3 7 -16 4 -29
-4 -18 -2 -16 11 7 19 34 21 55 4 38 -9 -9 -17 -7 -35 10 -25 23 -29 19 -12
-15 10 -21 10 -21 -5 -3 -9 11 -16 23 -16 28 0 4 -6 5 -14 2 -8 -3 -17 -1 -21
5 -7 12 -13 12 -33 4z"/>
<path d="M1500 230 c18 -12 30 -13 30 -2 0 4 -10 9 -22 9 -18 2 -20 0 -8 -7z"/>
<path d="M1996 203 c-6 -14 -5 -15 5 -6 7 7 10 15 7 18 -3 3 -9 -2 -12 -12z"/>
<path d="M2199 209 c-12 -7 -12 -9 1 -9 10 0 7 -5 -8 -16 -12 -8 -22 -21 -22
-27 0 -7 5 -4 11 6 10 18 12 18 32 0 12 -9 16 -11 10 -3 -18 20 -16 35 2 20 9
-7 18 -10 22 -6 3 3 0 6 -8 6 -10 0 -11 2 -2 8 9 6 7 11 -6 19 -11 7 -23 8
-32 2z"/>
<path d="M2426 203 c-6 -14 -5 -15 5 -6 7 7 10 15 7 18 -3 3 -9 -2 -12 -12z"/>
<path d="M2786 208 c3 -5 10 -6 15 -3 13 9 11 12 -6 12 -8 0 -12 -4 -9 -9z"/>
<path d="M1718 193 c7 -3 16 -2 19 1 4 3 -2 6 -13 5 -11 0 -14 -3 -6 -6z"/>
<path d="M2190 151 c0 -6 4 -13 10 -16 6 -3 7 1 4 9 -7 18 -14 21 -14 7z"/>
<path d="M2240 156 c0 -2 7 -7 16 -10 8 -3 12 -2 9 4 -6 10 -25 14 -25 6z"/>
<path d="M2456 151 c-3 -4 6 -6 19 -3 14 2 25 6 25 8 0 8 -39 4 -44 -5z"/>
<path d="M1867 129 c7 -7 15 -10 18 -7 3 3 -2 9 -12 12 -14 6 -15 5 -6 -5z"/>
<path d="M2036 123 c-6 -14 -5 -15 5 -6 7 7 10 15 7 18 -3 3 -9 -2 -12 -12z"/>
<path d="M2227 129 c7 -7 15 -10 18 -7 3 3 -2 9 -12 12 -14 6 -15 5 -6 -5z"/>
<path d="M2090 110 c0 -5 5 -10 11 -10 5 0 7 5 4 10 -3 6 -8 10 -11 10 -2 0
-4 -4 -4 -10z"/>
</g>
</svg>
